<svg xmlns="http://www.w3.org/2000/svg" xmlns:xlink="http://www.w3.org/1999/xlink" viewBox="0 0 80 48">
  <defs>
    <linearGradient id="logo_gradient" x1="33" y1="-5" x2="46" y2="53" gradientUnits="userSpaceOnUse">
      <stop offset="0" stop-color="#d263cc"></stop>
      <stop offset="0.08" stop-color="#d051b7"></stop>
      <stop offset="0.23" stop-color="#cd3596"></stop>
      <stop offset="0.31" stop-color="#cc2a89"></stop>
      <stop offset="0.49" stop-color="#cc2a89"></stop>
      <stop offset="0.72" stop-color="#cc2a89"></stop>
      <stop offset="0.85" stop-color="#bb398d"></stop>
      <stop offset="0.87" stop-color="#b93b8d"></stop>
      <stop offset="1" stop-color="#9d5c96"></stop>
    </linearGradient>
  </defs>
  <path class="tt-logo__svg" fill="currentColor" d="M5.74,23.13V7.29H0V1.61H17.93V7.29H12.22V23.13Zm25.06,0L30,20.62h-7.7l-.77,2.51H14.22L22.11,1.61h8.15l7.89,21.52ZM26.18,8l-2.11,6.94H28.3ZM39.32,23.13V1.61H45.8V17.45h8.11v5.68ZM5.74,46V30.16H0V24.48H17.93v5.68H12.22V46Zm13.67,0V24.48H35.65v5.68H25.89v2.13h9.53V38H25.89v2.35h9.76V46ZM36.75,35.26c0-6.65,5.07-11.14,11.77-11.14a10,10,0,0,1,9.72,6.27L52.66,33a4.54,4.54,0,0,0-4.14-3.13,5.14,5.14,0,0,0-5.2,5.39,5.14,5.14,0,0,0,5.2,5.39,4.55,4.55,0,0,0,4.14-3.13l5.58,2.58a10.09,10.09,0,0,1-9.72,6.29C41.82,46.39,36.75,41.87,36.75,35.26ZM73.52,46V37.78H65.85V46H59.37V24.48h6.48V32.1h7.67V24.48H80V46Z"></path>
</svg> 